<svg width="44" height="45" fill="none" xmlns="http://www.w3.org/2000/svg"><path fill-rule="evenodd" clip-rule="evenodd" d="M0 1.767a1 1 0 011-1h41.002a1 1 0 011 1v6.849a1 1 0 01-1 1H1a1 1 0 01-1-1v-6.85zm2 1v4.849h39.002v-4.85H2z" fill="#CCDAEA"/><path fill-rule="evenodd" clip-rule="evenodd" d="M1.407 8.616a1 1 0 011-1h37.718a1 1 0 011 1v34.997a1 1 0 01-1 1H2.407a1 1 0 01-1-1V8.616zm2 1v32.997h35.718V9.616H3.407z" fill="#CCDAEA"/><path fill-rule="evenodd" clip-rule="evenodd" d="M1.407 8.616a1 1 0 011-1h2.627a1 1 0 011 1v32.37a1 1 0 11-2 0V9.616h-.627v32.997h1.627a1 1 0 110 2H2.407a1 1 0 01-1-1V8.616zm35.091 0a1 1 0 011-1h2.627a1 1 0 011 1v34.997a1 1 0 01-1 1h-2.627a1 1 0 010-2h1.627V9.616h-.627v31.37a1 1 0 11-2 0V8.616z" fill="#CCDAEA"/><path fill-rule="evenodd" clip-rule="evenodd" d="M2.407 39.985a1 1 0 011 1v1.627h35.718v-1.627a1 1 0 112 0v2.627a1 1 0 01-1 1H2.407a1 1 0 01-1-1v-2.627a1 1 0 011-1z" fill="#CCDAEA"/><path fill-rule="evenodd" clip-rule="evenodd" d="M4.034 40.985a1 1 0 011-1h32.464a1 1 0 110 2H5.034a1 1 0 01-1-1z" fill="#CCDAEA"/></svg>