<svg width="36" height="59" fill="none" xmlns="http://www.w3.org/2000/svg"><g filter="url(#filter0_d_1_34)" fill-rule="evenodd" clip-rule="evenodd" fill="#CCDAEA"><path d="M9.19 2.204a2.798 2.798 0 00-2.8 2.8v40.8c0 1.548 1.252 2.8 2.8 2.8h17.1c1.547 0 2.8-1.252 2.8-2.8v-40.8c0-1.548-1.253-2.8-2.8-2.8H9.19zm-4.8 2.8c0-2.652 2.147-4.8 4.8-4.8h17.1c2.652 0 4.8 2.148 4.8 4.8v40.8c0 2.652-2.148 4.8-4.8 4.8H9.19a4.798 4.798 0 01-4.8-4.8v-40.8z"/><path d="M16.022 23.037a.098.098 0 00-.032.067v3.4c0 .018.007.043.032.068.025.025.05.032.068.032h3.4a.233.233 0 00.036-.002.49.49 0 00.064-.18v-3.318a.098.098 0 00-.032-.067.098.098 0 00-.068-.033h-3.4a.098.098 0 00-.068.032zm-2.032.067c0-1.152.947-2.1 2.1-2.1h3.4c1.152 0 2.1.948 2.1 2.1v3.4a.998.998 0 01-.01.142c-.072.502-.266.998-.646 1.378-.393.394-.907.58-1.444.58h-3.4a2.11 2.11 0 01-2.1-2.1v-3.4zm3.808-10.7a1 1 0 01.839.469l2.7 4.3a1 1 0 01-.847 1.531h-5.5a1 1 0 01-.838-1.545l2.8-4.3a1 1 0 01.846-.455zm-.964 4.3h1.847l-.907-1.444-.94 1.444zm-2.726 14.929a1 1 0 01.882-.528h5.5a1 1 0 01.84 1.54l-2.7 4.2a1 1 0 01-1.672.014l-2.8-4.2a1 1 0 01-.05-1.026zm2.75 1.472l.916 1.374.884-1.374h-1.8zM14.328.697a1 1 0 01.862-.493h5.2a1 1 0 01.874 1.486c-.68 1.222-2.017 2.014-3.474 2.014-1.458 0-2.795-.792-3.474-2.014a1 1 0 01.012-.993z"/></g><defs><filter id="filter0_d_1_34" x=".39" y=".204" width="34.7" height="58.4" filterUnits="userSpaceOnUse" color-interpolation-filters="sRGB"><feFlood flood-opacity="0" result="BackgroundImageFix"/><feColorMatrix in="SourceAlpha" values="0 0 0 0 0 0 0 0 0 0 0 0 0 0 0 0 0 0 127 0" result="hardAlpha"/><feOffset dy="4"/><feGaussianBlur stdDeviation="2"/><feComposite in2="hardAlpha" operator="out"/><feColorMatrix values="0 0 0 0 0 0 0 0 0 0 0 0 0 0 0 0 0 0 0.25 0"/><feBlend in2="BackgroundImageFix" result="effect1_dropShadow_1_34"/><feBlend in="SourceGraphic" in2="effect1_dropShadow_1_34" result="shape"/></filter></defs></svg>