<svg width="46" height="47" fill="none" xmlns="http://www.w3.org/2000/svg"><path fill-rule="evenodd" clip-rule="evenodd" d="M.098 1.256a1 1 0 011-1h42.985a1 1 0 011 1v7.18a1 1 0 01-1 1H1.098a1 1 0 01-1-1v-7.18zm2 1v5.18h40.985v-5.18H2.098zm2.392 25.42l-.005.007-.02.032a12.045 12.045 0 00-.362.614 8.871 8.871 0 00-.642 1.421c-.174.529-.178.836-.146.953a.932.932 0 00.34.046H22.64v2H3.655c-.5 0-.982-.094-1.394-.344a1.933 1.933 0 01-.842-1.066c-.25-.758-.059-1.604.143-2.215.218-.66.536-1.3.788-1.758a13.992 13.992 0 01.428-.726l.03-.046.008-.013.003-.004v-.001s.001-.001.836.55l-.835-.551a1 1 0 011.67 1.101zm18.15 4.073v1a1 1 0 100-2v1z" fill="#CCDAEA"/><path fill-rule="evenodd" clip-rule="evenodd" d="M40.975 26.29a1 1 0 011.385.285l-.772.51.772-.51v.001l.004.005.009.014.029.045a13.978 13.978 0 01.428.726c.252.459.57 1.097.788 1.758.202.611.393 1.457.143 2.216-.138.42-.41.804-.842 1.065-.412.25-.894.344-1.394.344H22.541v-2h18.984c.204 0 .303-.03.34-.046.033-.117.028-.424-.146-.953a8.87 8.87 0 00-.641-1.42 12.073 12.073 0 00-.362-.615l-.02-.032-.005-.006a1 1 0 01.284-1.386zM21.54 31.75a1 1 0 011-1v2a1 1 0 01-1-1zM2.985 41.63a1 1 0 111.34 1.484l-.67-.742.67.742-.002.003-.019.017a7.23 7.23 0 00-.343.347c-.185.2-.373.429-.507.64.058.003.125.005.201.005H22.64v2H3.655c-.795 0-1.725-.159-2.161-.946a1.645 1.645 0 01-.162-1.107 2.71 2.71 0 01.305-.808c.248-.449.597-.862.854-1.14a9.21 9.21 0 01.448-.453l.031-.029.01-.008.003-.003.002-.002.67.742-.67-.742zm19.654 3.496v1a1 1 0 000-2v1z" fill="#CCDAEA"/><path fill-rule="evenodd" clip-rule="evenodd" d="M40.783 41.702a1 1 0 011.413-.072l-.67.742.67-.742.002.002.003.003.01.008.03.03.107.1c.087.086.207.206.341.351.257.28.606.692.855 1.14.124.225.248.503.305.81a1.65 1.65 0 01-.162 1.106c-.436.787-1.367.946-2.162.946H22.541v-2h18.984c.076 0 .143-.002.202-.005a4.78 4.78 0 00-.508-.64 7.232 7.232 0 00-.343-.347l-.018-.017-.003-.003a1 1 0 01-.072-1.412zm-18.242 3.424v-1a1 1 0 100 2v-1zM2.655 8.83a1 1 0 011-1h37.969a1 1 0 011 1.007l-.097 13.283c.082.134.187.314.303.525.252.458.57 1.097.788 1.758.202.611.393 1.457.143 2.215-.138.42-.41.804-.842 1.066-.407.247-.883.341-1.376.343-1.512.05-6.236.074-10.564.086a3253.473 3253.473 0 01-7.649.013h-.69v-2h.69a3177.25 3177.25 0 007.643-.013c4.362-.012 9.063-.037 10.519-.085h.033a.928.928 0 00.34-.046c.033-.117.028-.424-.146-.953a8.87 8.87 0 00-.641-1.42 12.073 12.073 0 00-.363-.615l-.02-.032-.004-.007.834-.55M40.616 9.83l-.09 12.567a.996.996 0 00.165.558M40.616 9.83h1.008v-1l-1-.007-.008 1.007zm0 0H4.656v-1h-1v1h1v12.673a1 1 0 01-.166.55l-.835-.55-.835-.55-.001.001-.003.005-.008.013-.03.045a10.699 10.699 0 00-.123.198V8.83M4.49 23.053l-.835-.55h-1v-.288c-.082.135-.188.315-.305.528a10.86 10.86 0 00-.788 1.758c-.202.611-.393 1.457-.143 2.216.139.42.41.803.842 1.065.412.25.895.344 1.394.344H22.64v-2H3.655a.928.928 0 01-.34-.046c-.032-.117-.028-.424.146-.953a8.867 8.867 0 01.642-1.42 12.045 12.045 0 01.362-.615l.02-.032.005-.006v-.001z" fill="#CCDAEA"/><path fill-rule="evenodd" clip-rule="evenodd" d="M2.655 31.748a1 1 0 011-1h37.969a1 1 0 011 1v10.624a1 1 0 11-2 0v-9.623H4.655v9.623a1 1 0 11-2 0V31.749zm0-9.344a1 1 0 011-1h37.87a1 1 0 110 2H3.655a1 1 0 01-1-1zm0-6.885a1 1 0 011-1h37.969a1 1 0 010 2H3.655a1 1 0 01-1-1z" fill="#CCDAEA"/></svg>