<svg width="13" height="25" fill="none" xmlns="http://www.w3.org/2000/svg"><path fill-rule="evenodd" clip-rule="evenodd" d="M11.859 1.19c.182.185.194.42.194.534V5.06c0 .114-.012.35-.194.534-.184.187-.42.2-.536.2H9.477c-.323 0-.525.082-.647.186-.115.1-.217.27-.238.578v.01c-.037.403-.025.808-.013 1.238.005.144.009.29.012.441h2.559c.082 0 .183.004.282.026a.7.7 0 01.355.19c.114.115.162.25.184.353a1.37 1.37 0 01.022.334c-.115 1.11-.229 2.206-.286 3.242-.003.189-.054.441-.283.616-.2.15-.434.16-.563.16H8.708v10.269c0 .202-.026.495-.244.716-.22.224-.515.252-.717.252H3.941c-.194 0-.497-.024-.708-.266-.191-.218-.196-.497-.196-.635C2.98 21.8 2.98 20.04 2.98 18.35v-5.123H1.52c-.113 0-.385-.002-.587-.208-.2-.203-.202-.472-.202-.585V9.157c0-.113.002-.382.202-.585.202-.205.474-.208.587-.208h1.576V5.938c0-1.09.315-2.186.956-3.097l.001-.002c.856-1.203 2.108-1.725 3.44-1.79h.001c.646-.03 1.29-.03 1.92-.03h.006A40.818 40.818 0 0011.323.99c.115 0 .352.013.536.2zM8.593 8.522v-.003z" fill="#4C75A5"/></svg>