<svg width="44" height="45" fill="none" xmlns="http://www.w3.org/2000/svg"><path fill-rule="evenodd" clip-rule="evenodd" d="M.734 1.28a1 1 0 011-1h41.002a1 1 0 011 1v6.85a1 1 0 01-1 1H1.734a1 1 0 01-1-1V1.28zm2 1v4.85h39.002V2.28H2.734z" fill="#CCDAEA"/><path fill-rule="evenodd" clip-rule="evenodd" d="M2.142 8.13a1 1 0 011-1H40.86a1 1 0 011 1v34.996a1 1 0 01-1 1H3.142a1 1 0 01-1-1V8.13zm2 1v32.996H39.86V9.13H4.142z" fill="#CCDAEA"/><path fill-rule="evenodd" clip-rule="evenodd" d="M2.142 8.13a1 1 0 011-1h2.627a1 1 0 011 1V40.5a1 1 0 11-2 0V9.13h-.627v32.996h1.627a1 1 0 110 2H3.142a1 1 0 01-1-1V8.13zm35.09 0a1 1 0 011-1h2.627a1 1 0 011 1v34.996a1 1 0 01-1 1h-2.627a1 1 0 110-2h1.627V9.13h-.627V40.5a1 1 0 11-2 0V8.13z" fill="#CCDAEA"/><path fill-rule="evenodd" clip-rule="evenodd" d="M3.142 39.499a1 1 0 011 1v1.627H39.86V40.5a1 1 0 112 0v2.627a1 1 0 01-1 1H3.142a1 1 0 01-1-1V40.5a1 1 0 011-1z" fill="#CCDAEA"/><path fill-rule="evenodd" clip-rule="evenodd" d="M4.769 40.499a1 1 0 011-1h32.463a1 1 0 110 2H5.77a1 1 0 01-1-1z" fill="#CCDAEA"/></svg>