<svg width="21" height="21" fill="none" xmlns="http://www.w3.org/2000/svg"><path fill-rule="evenodd" clip-rule="evenodd" d="M7.444 2.966a1.593 1.593 0 00-2.253 0l-.757.758-.707-.707.757-.758a2.593 2.593 0 013.667 0l.947.947a2.593 2.593 0 010 3.667l-.758.757-.707-.707.757-.757a1.593 1.593 0 000-2.253l-.946-.946z" fill="#fff"/><path fill-rule="evenodd" clip-rule="evenodd" d="M3.755 2.99l.325.38c.324.38.325.38.326.38v-.001l.003-.002.003-.003.003-.003.001-.001-.002.002a1.003 1.003 0 00-.159.269c-.09.224-.18.625-.068 1.262.23 1.292 1.296 3.543 4.859 7.106l-.707.707C4.725 9.472 3.486 7.042 3.203 5.447c-.143-.807-.04-1.4.125-1.81a1.97 1.97 0 01.258-.462 1.443 1.443 0 01.145-.163L3.745 3l.006-.005.002-.003h.002zm3.776 4.08c.001-.001.002-.003.456.207s.455.208.455.206l.002-.004.003-.007.006-.014a.485.485 0 00.03-.16.234.234 0 00-.005-.053l.001.002c.007.024.046.127.192.348.29.44.95 1.264 2.423 2.736l-.707.707C8.899 9.55 8.183 8.67 7.837 8.146c-.173-.26-.268-.455-.314-.607a.822.822 0 01-.04-.233.596.596 0 01.038-.21l.006-.014.003-.008.001-.003zm9.963 5.947a1.593 1.593 0 00-2.252 0l-.758.757-.707-.707.757-.757a2.593 2.593 0 013.668 0l.946.946a2.593 2.593 0 010 3.667l-.757.758-.707-.707.757-.758a1.593 1.593 0 000-2.253l-.947-.946z" fill="#fff"/><path fill-rule="evenodd" clip-rule="evenodd" d="M17.658 17.003l.38.325c.38.324.38.325.379.325l-.001.002-.002.002-.006.006-.013.014a1.115 1.115 0 01-.163.145 2.03 2.03 0 01-.46.258c-.411.166-1.005.269-1.812.125-1.594-.282-4.025-1.522-7.638-5.136l.707-.707c3.563 3.563 5.813 4.63 7.106 4.859.636.113 1.038.022 1.261-.068a1.002 1.002 0 00.27-.159l.001-.002-.004.004-.003.004-.001.001-.001.002zm-3.733-4.037c-.002 0-.004.001.206.455s.207.455.206.456l-.004.001-.007.003-.014.006a.49.49 0 01-.09.026.593.593 0 01-.12.011.825.825 0 01-.233-.039c-.153-.046-.346-.141-.608-.313-.523-.347-1.403-1.063-2.891-2.55l.707-.708c1.472 1.472 2.296 2.133 2.736 2.423.22.146.323.185.347.192a.03.03 0 00.003 0s-.02-.005-.053-.005a.403.403 0 00-.16.031l-.015.006-.007.003-.003.002z" fill="#fff"/></svg>