<svg width="21" height="19" fill="none" xmlns="http://www.w3.org/2000/svg"><path fill-rule="evenodd" clip-rule="evenodd" d="M20.422 1.03a.5.5 0 01.174.477l-3.114 16.797a.5.5 0 01-.745.34l-5.862-3.439-1.993 3.268a.5.5 0 01-.927-.26v-5.677a.5.5 0 01.166-.372l4.098-3.687-5.88 3.38a.5.5 0 01-.475.013L1.02 9.412a.5.5 0 01.04-.91L19.92.951a.5.5 0 01.503.077zM2.457 9.02l3.619 1.835 9.742-5.6a.5.5 0 01.584.805l-7.447 6.698v3.675l1.322-2.168a.5.5 0 01.68-.17l5.672 3.326 2.818-15.203-16.99 6.801z" fill="#4C75A5"/></svg>