<svg width="25" height="16" fill="none" xmlns="http://www.w3.org/2000/svg"><path fill-rule="evenodd" clip-rule="evenodd" d="M12.213.73h.013c.497 0 .824.015 1.087.048.267.034.455.086.66.146.364.094.673.267.884.574.2.291.266.64.29.986.024.347.008.765-.012 1.23 0 .028-.002.055-.003.082-.02.456-.041.98-.041 1.59 0 .133-.003.265-.005.396-.006.313-.012.616.017.909.03.307.09.49.156.595.043-.03.098-.073.165-.136.327-.307.845-.971 1.617-2.307l.001-.002c.362-.62.685-1.304.919-1.837a23.708 23.708 0 00.348-.834l.018-.048.005-.012v-.003l.003-.006.466.183-.465-.183v-.004l.003-.005.007-.016a1.605 1.605 0 01.1-.202c.06-.103.178-.289.363-.414.212-.143.451-.159.576-.159a1.477 1.477 0 01.206.015h3.453a2.572 2.572 0 01.171-.01c.115-.005.275-.005.446.012.166.018.371.055.562.14a.96.96 0 01.525.536c.095.256.065.539.004.786-.064.26-.182.554-.342.876-.321.644-.845 1.46-1.573 2.435-.29.404-.547.752-.772 1.054l-.084.113c-.19.254-.351.471-.488.663-.328.46-.454.695-.487.852-.018.086-.02.173.14.383.175.232.471.515.948.97l.05.048c1.837 1.747 2.302 2.67 2.404 2.877.218.381.311.758.226 1.114a1.187 1.187 0 01-.558.733c-.22.136-.459.206-.625.243a2.593 2.593 0 01-.282.046l-.02.002h-.01s-.002 0-.038-.498l.037.499a.509.509 0 01-.027 0l-3.07.059a2.092 2.092 0 01-.572.004c-.36-.047-.83-.194-1.333-.567-.332-.237-.645-.554-.929-.868-.15-.166-.318-.362-.478-.548-.122-.142-.238-.278-.338-.39-.262-.295-.482-.517-.672-.65a.687.687 0 00-.2-.104.136.136 0 00-.034-.006.023.023 0 00-.009.001.53.53 0 01-.03.01c-.038.01-.11.05-.196.201-.085.15-.153.358-.202.59a4.778 4.778 0 00-.097.877v.046a1.836 1.836 0 01-.028.283 1.467 1.467 0 01-.243.626.502.502 0 01-.046.054c-.195.198-.44.302-.6.357a2.097 2.097 0 01-.285.074l-.021.003-.008.002h-.003c-.001 0-.002 0-.074-.494l.072.494a.505.505 0 01-.072.006h-1.368l-.03.001a5.342 5.342 0 01-.543-.012 7.413 7.413 0 01-1.444-.256c-1.178-.329-2.704-1.045-4.13-2.584-1.549-1.632-2.973-4.023-4-5.976A53.058 53.058 0 01.608 2.96l-.023-.054-.006-.014-.002-.004v-.002l-.002-.003-.003-.007-.008-.023a1.623 1.623 0 01-.083-.3 1.156 1.156 0 01-.012-.343.786.786 0 01.188-.426.96.96 0 01.357-.267 1.55 1.55 0 01.34-.104 2.188 2.188 0 01.338-.038h.037l.001.496v-.497h3.345a.5.5 0 01.1.01l-.1.49.1-.49h.001l.003.001.006.001.016.004a1.615 1.615 0 01.217.065c.12.043.284.115.443.23.17.094.288.211.366.316a.984.984 0 01.121.218l.003.006.019.045a29.739 29.739 0 00.342.779c.228.498.538 1.143.875 1.74.69 1.225 1.183 1.937 1.538 2.305.162.167.265.23.316.252a.398.398 0 00.02-.036 1.48 1.48 0 00.104-.321c.065-.296.1-.681.114-1.08A15.301 15.301 0 009.654 4.4l-.002-.024V4.37a.51.51 0 01-.002-.037m1-.02v-.041l-.006-.152a6.541 6.541 0 00-.041-.492 4.304 4.304 0 00-.117-.613 1.9 1.9 0 00-.296-.638 1.913 1.913 0 00-.56-.453c.225-.077.529-.128.924-.157a24.147 24.147 0 011.672-.036c.484 0 .762.015.96.04.191.025.32.06.516.116l.016.005c.208.053.278.12.315.173.048.07.097.205.117.488.019.282.006.64-.014 1.121l-.003.084c-.02.455-.042.997-.042 1.629 0 .095-.002.203-.004.319-.006.33-.014.728.02 1.082.045.46.172 1.058.65 1.401.197.147.445.18.692.11.224-.066.441-.215.659-.419.437-.41 1.014-1.18 1.799-2.535a19.84 19.84 0 00.97-1.937 24.958 24.958 0 00.363-.873l.02-.053.006-.013v-.002a.611.611 0 01.048-.094.59.59 0 01.046-.07.346.346 0 01.082.003.03.03 0 01.013.002h-.002l-.002-.001a.503.503 0 00.099.01h3.518a.499.499 0 00.056-.003M9.193 2.237v-.002zm1.457 2.076l.001.02.007.104a16.482 16.482 0 01.02 1.508c-.014.42-.052.877-.137 1.261a2.4 2.4 0 01-.188.556c-.08.158-.208.344-.416.457a.935.935 0 01-.808.078c-.26-.09-.498-.276-.722-.508-.452-.467-.997-1.276-1.692-2.51a24.983 24.983 0 01-.913-1.814 30.808 30.808 0 01-.355-.808l-.02-.048-.005-.013-.001-.002a.16.16 0 00-.053-.04.5.5 0 01-.077-.048.831.831 0 00-.278-.132h-3.29a1.08 1.08 0 00-.251.038.715.715 0 00.026.086l.002.004m-.09-.066h.001zm4.01.155zm4.23 1.741V4.29a4.948 4.948 0 00-.04-.541 3.322 3.322 0 00-.088-.47A1.01 1.01 0 009.408 3a1.029 1.029 0 00-.35-.246 1.236 1.236 0 00-.267-.084l-.025-.003a.546.546 0 01-.54-.67.99.99 0 01.179-.38c.141-.195.379-.42.675-.55.4-.183.89-.261 1.401-.299C10.997.73 11.589.73 12.213.73m.149 13.521a.473.473 0 01.037-.001h1.338l.005-.002a1.09 1.09 0 00.112-.03.688.688 0 00.177-.086.712.712 0 00.045-.166 1.234 1.234 0 00.015-.15v-.032a3.944 3.944 0 01.014-.313c.015-.198.044-.471.105-.756.059-.28.153-.6.311-.877.155-.273.403-.559.79-.669.437-.14.835.043 1.12.242.295.205.583.506.848.805.135.152.254.291.372.43.14.164.28.326.438.502.273.301.528.553.77.726l.01.006c.36.268.668.355.869.381a1.096 1.096 0 00.273.002h.003a.498.498 0 01.104-.013l3.096-.059m-7.86-6.804l-.007-.005a.274.274 0 01.008.005zm-.763 6.426h-.5.5z" fill="#4C75A5"/></svg>