<svg width="39" height="44" fill="none" xmlns="http://www.w3.org/2000/svg"><path d="M7.31 41.509a4.866 4.866 0 100-9.732 4.866 4.866 0 000 9.732z" fill="#fff"/><path fill-rule="evenodd" clip-rule="evenodd" d="M7.31 32.277a4.366 4.366 0 100 8.732 4.366 4.366 0 000-8.732zm-5.366 4.366a5.366 5.366 0 1110.732 0 5.366 5.366 0 01-10.732 0z" fill="#476482"/><path d="M25.975 39.594c0 .08.08.16.16.24.159.318.398.558.558.797 1.196 1.436 2.951 2.313 4.865 2.313 3.51 0 6.382-2.872 6.382-6.381 0-1.994-.878-3.749-2.313-4.866" fill="#fff"/><path fill-rule="evenodd" clip-rule="evenodd" d="M35.232 31.39a.5.5 0 01.701-.087c1.561 1.214 2.507 3.116 2.507 5.26 0 3.786-3.096 6.881-6.881 6.881-2.071 0-3.964-.95-5.25-2.493a.534.534 0 01-.032-.043c-.046-.069-.096-.132-.16-.213l-.1-.128a3.332 3.332 0 01-.29-.436 1.323 1.323 0 01-.102-.117.702.702 0 01-.15-.42.5.5 0 01.977-.15l.036.036a.5.5 0 01.094.13c.058.116.134.226.228.347l.069.088c.068.087.147.188.214.285 1.106 1.317 2.716 2.114 4.465 2.114 3.234 0 5.882-2.648 5.882-5.881 0-1.844-.81-3.452-2.12-4.471a.5.5 0 01-.088-.702z" fill="#476482"/><path d="M3.242 31.697A6.37 6.37 0 00.93 36.643c0 3.51 2.871 6.38 6.381 6.38 2.792 0 5.185-1.834 6.062-4.386l.24-.957" fill="#fff"/><path fill-rule="evenodd" clip-rule="evenodd" d="M3.626 31.377a.5.5 0 01-.064.704 5.87 5.87 0 00-2.133 4.562c0 3.233 2.648 5.88 5.881 5.88 2.56 0 4.765-1.677 5.582-4.029l.234-.936a.5.5 0 01.97.243l-.239.957a.49.49 0 01-.012.041c-.943 2.743-3.518 4.725-6.535 4.725-3.786 0-6.881-3.096-6.881-6.881a6.87 6.87 0 012.493-5.33.5.5 0 01.704.064z" fill="#476482"/><path d="M31.558 41.509a4.866 4.866 0 100-9.732 4.866 4.866 0 000 9.732z" fill="#fff"/><path fill-rule="evenodd" clip-rule="evenodd" d="M31.558 32.277a4.366 4.366 0 100 8.732 4.366 4.366 0 000-8.732zm-5.365 4.366a5.366 5.366 0 1110.731 0 5.366 5.366 0 01-10.731 0z" fill="#476482"/><path d="M3.242 31.697s1.117-1.276 5.025-2.313c2.313-.558 4.467-1.595 6.222-3.19.797-.639 1.436-1.436 1.994-2.234l1.595 2.632s-2.552 2.074-4.786 11.965" fill="#fff"/><path fill-rule="evenodd" clip-rule="evenodd" d="M16.5 23.46a.5.5 0 01.41.24l1.596 2.633a.5.5 0 01-.108.644m-.947-.456c-.06.068-.126.148-.2.24-.295.377-.7.971-1.171 1.873-.942 1.802-2.152 4.836-3.275 9.813a.5.5 0 10.975.22c1.11-4.914 2.293-7.863 3.186-9.57.446-.853.819-1.395 1.072-1.717a4.127 4.127 0 01.349-.393l.01-.01m-.946-.456l-1.007-1.66c-.465.607-.997 1.204-1.63 1.713-1.823 1.653-4.05 2.72-6.424 3.295-1.913.508-3.125 1.07-3.849 1.492a5.789 5.789 0 00-.746.507 2.448 2.448 0 00-.177.16v-.001l-.003.003.002-.002-.002.002a.5.5 0 01-.75-.662l.362.316c-.361-.316-.36-.316-.36-.317v-.001l.003-.003.006-.007.017-.018.057-.057c.048-.047.117-.11.21-.186.188-.153.471-.36.877-.597.811-.475 2.11-1.069 4.102-1.597l.01-.003h.001c2.245-.542 4.32-1.545 6.003-3.075a.431.431 0 01.024-.02c.742-.595 1.349-1.347 1.896-2.13a.5.5 0 01.427-.213" fill="#476482"/><path d="M20.391 17.977s1.915 3.032 1.995 3.43c0 0 4.785-7.976 5.663-9.252.877-1.197 4.227-5.664 2.632-11.327l-8.614 14.517-1.676 2.632z" fill="#fff"/><path fill-rule="evenodd" clip-rule="evenodd" d="M30.746.332a.5.5 0 01.416.36c1.643 5.832-1.736 10.432-2.67 11.704l-.035.048c-.434.632-1.835 2.92-3.141 5.075a1121.205 1121.205 0 00-2.294 3.8l-.207.345-.43-.257.43.257a.5.5 0 01-.92-.159l.002.009c-.002 0-.016-.042-.068-.147a10.7 10.7 0 00-.225-.42c-.186-.332-.43-.743-.673-1.145a103.09 103.09 0 00-.88-1.428l-.061-.096-.021-.033.422-.268-.422.268a.5.5 0 010-.536l1.671-2.626L30.252.573a.5.5 0 01.495-.24zM20.983 17.98a88.077 88.077 0 01.803 1.305c.225.371.454.756.64 1.085A1509.259 1509.259 0 0124.461 17c1.3-2.145 2.727-4.475 3.176-5.129l.009-.012.026-.036c.846-1.153 3.574-4.87 2.795-9.655L22.497 15.6l-.009.014-1.505 2.365z" fill="#476482"/><path d="M26.613 40.63c-.08-.08-.16-.239-.24-.318-.079-.08-.159-.24-.239-.32a1.1 1.1 0 00-.239-.319c-.877-1.515-1.116-3.11-1.196-4.147-.08-1.675-.638-3.031-1.516-4.387" fill="#fff"/><path fill-rule="evenodd" clip-rule="evenodd" d="M22.912 30.719a.5.5 0 01.691.148c.91 1.406 1.508 2.845 1.595 4.628.077.991.303 2.471 1.099 3.873.074.077.164.18.252.338.02.023.036.046.05.065l.07.1.001.004c.021.031.035.053.048.07l.013.016c.045.046.081.093.107.129l.07.1.002.004a2.3 2.3 0 00.048.07l.012.016a.5.5 0 01-.71.704 1.107 1.107 0 01-.111-.132c-.026-.035-.05-.072-.07-.1l-.002-.004a2.3 2.3 0 00-.048-.07l-.012-.016a1.115 1.115 0 01-.107-.129c-.026-.035-.051-.073-.07-.1l-.002-.004a2.33 2.33 0 00-.048-.07l-.012-.016a.497.497 0 01-.09-.127.54.54 0 00-.064-.1 1.065 1.065 0 00-.082-.089.499.499 0 01-.08-.103c-.931-1.61-1.18-3.29-1.262-4.36v-.014c-.075-1.564-.593-2.836-1.437-4.14a.5.5 0 01.149-.691z" fill="#476482"/><path d="M22.306 24.04c.797 1.356 2.233 2.553 3.51 3.43a14.838 14.838 0 004.466 1.914c3.59.957 5.265 2.393 5.265 2.393" fill="#fff"/><path fill-rule="evenodd" clip-rule="evenodd" d="M22.052 23.61a.5.5 0 01.685.177c.74 1.257 2.097 2.4 3.356 3.267a14.342 14.342 0 004.31 1.845l.008.002c1.837.49 3.19 1.104 4.091 1.6.45.25.787.468 1.014.628a6.488 6.488 0 01.328.245l.019.016.006.005.002.001v.001l-.324.38.325-.38a.5.5 0 01-.65.76h-.001l-.01-.009a5.44 5.44 0 00-.269-.2c-.2-.14-.506-.34-.923-.57-.834-.46-2.11-1.042-3.862-1.51a15.338 15.338 0 01-4.613-1.978l-.012-.008c-1.292-.888-2.802-2.135-3.657-3.588a.5.5 0 01.177-.685z" fill="#476482"/><path d="M16.722 21.567s-4.786-8.056-5.663-9.253C10.102 11.118 6.752 6.651 8.347.988l8.694 14.517 1.675 2.632" fill="#fff"/><path fill-rule="evenodd" clip-rule="evenodd" d="M8.281.492a.5.5 0 01.495.239l8.69 14.511 1.672 2.627a.5.5 0 01-.843.537l-1.683-2.644L8.562 2.32c-.79 4.837 2.012 8.588 2.888 9.682a.526.526 0 01.012.017c.456.621 1.888 2.962 3.186 5.112a746.8 746.8 0 012.297 3.832l.207.348-.377.225.377-.225a.5.5 0 01-.86.511l.372-.22-.372.22-.207-.348a922.706 922.706 0 00-2.293-3.826c-1.308-2.167-2.701-4.442-3.13-5.03-.977-1.223-4.46-5.861-2.796-11.766a.5.5 0 01.415-.36z" fill="#476482"/><path fill-rule="evenodd" clip-rule="evenodd" d="M16.44 21.155a.5.5 0 01.695.129l6.46 9.412a.5.5 0 01-.824.566l-6.46-9.412a.5.5 0 01.128-.695zm2.017-3.445a.5.5 0 01.687.168l3.589 5.902a.5.5 0 11-.854.52l-3.59-5.903a.5.5 0 01.168-.687z" fill="#476482"/><path d="M19.355 22.922a.717.717 0 100-1.435.717.717 0 000 1.435z" fill="#476482"/><path d="M7.31 41.509a4.866 4.866 0 100-9.732 4.866 4.866 0 000 9.732z" fill="#fff"/><path fill-rule="evenodd" clip-rule="evenodd" d="M7.31 32.277a4.366 4.366 0 100 8.732 4.366 4.366 0 000-8.732zm-5.366 4.366a5.366 5.366 0 1110.732 0 5.366 5.366 0 01-10.732 0z" fill="#476482"/></svg>