<svg width="88" height="39" fill="none" xmlns="http://www.w3.org/2000/svg"><rect x=".243" width="86.305" height="38.622" rx="19.311" fill="#FFE27D"/><rect x="38" width="49.258" height="38.622" rx="19.311" fill="#12253B"/><path d="M69.944 25.553a.26.26 0 00-.189-.114h-.034a8.21 8.21 0 01-4.841-14.846.26.26 0 00-.147-.477l.002.002a8.734 8.734 0 105.138 15.797.26.26 0 00.07-.362z" fill="#FFE380"/><path d="M67.14 20.362a.26.26 0 00-.108-.055l-.001-.003-.705-.17-.378-.612a.26.26 0 00-.446 0l-.381.613-.694.169a.26.26 0 00-.149.425l.47.55-.055.724a.26.26 0 00.367.26l.671-.275.657.27a.26.26 0 00.367-.255l-.055-.723.47-.55a.26.26 0 00-.03-.368zm1.132-6.649a.26.26 0 00-.108-.055l.004.01-1.204-.294-.65-1.052a.26.26 0 00-.445 0l-.651 1.055-1.193.292a.26.26 0 00-.152.411l.801.945-.093 1.237a.26.26 0 00.367.26l1.147-.47 1.132.465a.26.26 0 00.367-.255l-.094-1.237.802-.945a.26.26 0 00-.03-.367zm2.328 4.218a.26.26 0 00-.107-.055l-.007-.003-.55-.133-.293-.473a.26.26 0 00-.445 0l-.288.483-.533.13a.26.26 0 00-.15.42l.367.428-.042.55a.26.26 0 00.367.26l.517-.212.503.205a.26.26 0 00.367-.255l-.042-.55.367-.428a.26.26 0 00-.03-.367z" fill="#FFE380"/><path d="M25.176 11.936a6.442 6.442 0 00-6.434 6.434 6.442 6.442 0 006.434 6.435 6.442 6.442 0 006.434-6.434 6.442 6.442 0 00-6.434-6.435zm6.679 10.295a7.758 7.758 0 01-2.832 2.831l3.874 1.043-1.042-3.874zM25.176 7.39l-1.982 3.53c.63-.18 1.3-.27 1.982-.27.682 0 1.351.09 1.982.27l-1.982-3.53zm-7.721 3.26l1.042 3.86a7.654 7.654 0 012.805-2.818l-3.847-1.042zm.27 5.726l-3.518 1.995 3.518 1.994a7.25 7.25 0 01-.27-1.994c0-.695.09-1.364.27-1.995zm.772 5.855l-1.042 3.874 3.873-1.043a7.759 7.759 0 01-2.831-2.83zm6.679 3.861c-.695 0-1.364-.09-2.008-.27l2.008 3.53 2.007-3.53a7.41 7.41 0 01-2.007.27zm3.867-14.393a7.767 7.767 0 012.81 2.813l1.048-3.86-3.858 1.047zm7.101 6.678l-3.515-1.99a7.64 7.64 0 01.268 1.983c0 .692-.1 1.36-.272 1.999l3.52-1.992z" fill="#12253B"/></svg>