<svg width="44" height="72" fill="none" xmlns="http://www.w3.org/2000/svg"><path fill-rule="evenodd" clip-rule="evenodd" d="M.826 12a1 1 0 011-1h41a1 1 0 011 1v59a1 1 0 01-1 1h-41a1 1 0 01-1-1V12zm2 1v57h39V13h-39z" fill="#59738C"/><path fill-rule="evenodd" clip-rule="evenodd" d="M35.446 3.215a1 1 0 01.38.785v8a1 1 0 11-2 0V5.265l-6.769 1.608a1 1 0 11-.462-1.946l8-1.9a1 1 0 01.851.188z" fill="#59738C"/><path fill-rule="evenodd" clip-rule="evenodd" d="M27.372.163a1 1 0 01.454.837v4.9a1 1 0 01-.757.97l-.406.102-24.6 6a1 1 0 01-.64-1.887l25-11a1 1 0 01.95.078zM12.646 8.332l13.18-3.215V2.533l-13.18 5.799zM4.826 18a1 1 0 011-1h16a1 1 0 011 1v23a1 1 0 01-1 1h-16a1 1 0 01-1-1V18zm2 1v21h14V19h-14zm18 27a1 1 0 011-1h13a1 1 0 011 1v19a1 1 0 01-1 1h-13a1 1 0 01-1-1V46zm2 1v17h11V47h-11zm-1-26a1 1 0 011-1h12a1 1 0 110 2h-12a1 1 0 01-1-1zm0 4.5a1 1 0 011-1h6a1 1 0 110 2h-6a1 1 0 01-1-1zm0 4.5a1 1 0 011-1h9a1 1 0 110 2h-9a1 1 0 01-1-1zm-21 17a1 1 0 011-1h9a1 1 0 110 2h-9a1 1 0 01-1-1zm0 4.5a1 1 0 011-1h12v2h-12a1 1 0 01-1-1zm14 0a1 1 0 01-1 1v-2a1 1 0 011 1zm-14 4.5a1 1 0 011-1h6a1 1 0 110 2h-6a1 1 0 01-1-1z" fill="#59738C"/><path fill-rule="evenodd" clip-rule="evenodd" d="M12.226 17a1 1 0 011 1v11h8.6a1 1 0 110 2h-9.6a1 1 0 01-1-1V18a1 1 0 011-1zM6.09 37.064h.004l.026-.007.117-.03c.107-.024.27-.06.482-.101a18.849 18.849 0 011.824-.255 21.458 21.458 0 015.283.166V41a1 1 0 102 0v-5a1 1 0 00-.804-.98 23.326 23.326 0 00-6.663-.34c-.85.078-1.538.189-2.02.282a14.256 14.256 0 00-.715.157l-.043.011-.013.004-.004.001h-.002l.264.965-.265-.964a1 1 0 00.53 1.928z" fill="#59738C"/></svg>