<svg width="55" height="73" fill="none" xmlns="http://www.w3.org/2000/svg"><path fill-rule="evenodd" clip-rule="evenodd" d="M0 1a1 1 0 011-1h52.701a1 1 0 011 1v70.701a1 1 0 01-1 1H1a1 1 0 01-1-1V1zm2 1v68.701h50.701V2H2z" fill="#59738C"/><path fill-rule="evenodd" clip-rule="evenodd" d="M8.684 20.306a1 1 0 011-1h35.33a1 1 0 011 1v6.199a1 1 0 01-1 1H9.684a1 1 0 01-1-1v-6.2zm2 1v4.199h33.33v-4.2h-33.33zm2.049 9.4a1 1 0 011 1s0 .03.004.092.012.154.028.278c.033.248.098.623.227 1.13.257 1.008.77 2.54 1.79 4.64a6.17 6.17 0 01.235.438c.132.272.303.672.395 1.102.03.136.056.3.064.48H42.07a1 1 0 110 2H14.407a.997.997 0 01-.674-.261v9.79h27.664a1 1 0 010 2H13.41m.324-13.268a.997.997 0 01.674-.26l.06-.002a1.298 1.298 0 00-.01-.061 3.02 3.02 0 00-.239-.646 4.507 4.507 0 00-.157-.294l-.008-.013a.986.986 0 01-.049-.089 40.271 40.271 0 01-.271-.568v1.933zm-1-9.42a1 1 0 00-1 1l1-1zm1.32 8.144v-.001.001zm.553.997a.036.036 0 01.01-.004c.001 0-.002.002-.01.004z" fill="#59738C"/><path fill-rule="evenodd" clip-rule="evenodd" d="M12.745 30.706a1 1 0 011 1c0 .012-.004 1.942 2.037 6.138l.055.094c.047.084.111.202.18.343.134.271.307.672.4 1.103.086.395.152 1.032-.195 1.604-.395.65-1.1.878-1.815.878a1 1 0 110-2l.067-.001a3 3 0 00-.252-.703 4.445 4.445 0 00-.159-.295l-.007-.012a1 1 0 01-.052-.093c-2.173-4.454-2.26-6.695-2.26-7.056a1 1 0 011-1zm1.31 8.149v-.001zm.568.988l-.01.004a.035.035 0 01.01-.004z" fill="#59738C"/><path fill-rule="evenodd" clip-rule="evenodd" d="M11.935 40.275a1 1 0 01.813-.418h29.337a1 1 0 110 2H14.397c.351.572.862 1.328 1.593 2.272.03.04.058.082.083.126l-.874.486.874-.486v.001l.002.003.004.007.012.023a5.084 5.084 0 01.164.33c.093.203.216.498.298.813.072.273.167.749.014 1.215-.088.265-.26.54-.555.735a1.567 1.567 0 01-.876.247 1 1 0 01-.56-1.828 3.651 3.651 0 00-.22-.516c-1.005-1.303-1.631-2.293-2.012-2.975a10.427 10.427 0 01-.409-.802 5.251 5.251 0 01-.12-.291l-.009-.023-.003-.009-.001-.003v-.002s-.001-.002.946-.323l-.947.321a1 1 0 01.134-.903z" fill="#59738C"/><path fill-rule="evenodd" clip-rule="evenodd" d="M11.932 46.047a1 1 0 01.813-.418H42.07a1 1 0 110 2H14.396a26.17 26.17 0 001.591 2.273c.031.04.059.081.083.125l-.874.486.874-.486.001.002.001.002.004.008.013.023a4.706 4.706 0 01.163.33c.093.203.216.498.298.814.072.273.166.75.014 1.215-.087.265-.26.54-.555.735a1.567 1.567 0 01-.876.248 1 1 0 01-.559-1.829 3.635 3.635 0 00-.222-.519c-1.005-1.306-1.63-2.295-2.01-2.976a10.5 10.5 0 01-.41-.8 5.266 5.266 0 01-.12-.29l-.008-.023-.003-.008-.002-.004v-.002l.946-.324-.947.323a1 1 0 01.134-.905zm28.486-5.18a1 1 0 011-1h2.063a1 1 0 110 2h-2.063a1 1 0 01-1-1z" fill="#59738C"/><path fill-rule="evenodd" clip-rule="evenodd" d="M41.558 40.007a1 1 0 011.371.348c.224.375.479.936.764 1.577l.195.44c.249.562.534 1.206.87 1.929a6.24 6.24 0 01.161.327c.093.203.216.498.299.813.071.273.166.749.013 1.215-.087.265-.26.54-.555.735a1.567 1.567 0 01-.875.247 1 1 0 01-.56-1.828 3.643 3.643 0 00-.247-.565l-.004-.008a1.024 1.024 0 01-.034-.066c-.349-.751-.647-1.426-.9-1.997l-.19-.429c-.3-.674-.505-1.115-.655-1.367a1 1 0 01.347-1.37zm1.755 6.112v-.004.004zm-.324-.884v.001z" fill="#59738C"/><path fill-rule="evenodd" clip-rule="evenodd" d="M41.577 45.753a1 1 0 011.366.369c.4.694 1.166 2.42 1.827 3.945a5.776 5.776 0 01.155.316c.093.203.216.498.299.814.071.273.166.749.013 1.214-.087.266-.26.54-.555.736a1.567 1.567 0 01-.875.248h-3.061a1 1 0 110-2h2.438a3.985 3.985 0 00-.184-.397l-.005-.008a1.004 1.004 0 01-.043-.088c-.687-1.585-1.41-3.205-1.743-3.783a1 1 0 01.368-1.366zm1.742 6.122v-.004.004z" fill="#59738C"/><path fill-rule="evenodd" clip-rule="evenodd" d="M40.418 46.63a1 1 0 011-1h2.389a1 1 0 110 2h-2.389a1 1 0 01-1-1zM12.733 25.505a1 1 0 011 1v5.201a1 1 0 11-2 0v-5.201a1 1 0 011-1zm28.882.006a1 1 0 011 1v5.21-.011.001l.002.04c.001.043.006.12.019.23.025.222.08.582.203 1.088.245 1.004.756 2.582 1.826 4.783l.056.096c.047.084.11.202.179.342.132.272.303.672.395 1.102.084.396.148 1.03-.196 1.6-.392.65-1.095.88-1.81.88a1 1 0 110-2h.061a1.41 1.41 0 00-.011-.062 3.018 3.018 0 00-.238-.646 4.43 4.43 0 00-.158-.294l-.007-.013a1 1 0 01-.05-.089c-1.137-2.334-1.706-4.06-1.99-5.226a10.832 10.832 0 01-.248-1.337 5.453 5.453 0 01-.033-.508V26.51a1 1 0 011-1zm1.884 14.34l-.01.003a.036.036 0 01.01-.004zm-5.483-14.346a1 1 0 011 1v18.218a1 1 0 01-2 0V26.505a1 1 0 011-1z" fill="#59738C"/><path d="M39.054 45.757a1.034 1.034 0 00-2.069 0v1.177a1.034 1.034 0 002.069 0v-1.177z" fill="#fff"/><path fill-rule="evenodd" clip-rule="evenodd" d="M38.02 45.723a.034.034 0 00-.035.034v1.177a.035.035 0 00.069 0v-1.177a.034.034 0 00-.035-.034zm-2.035.034a2.034 2.034 0 014.069 0v1.177a2.034 2.034 0 01-4.069 0v-1.177zM42.934.617A1 1 0 0143.858 0H53.7a1 1 0 011 1v9.838a1 1 0 01-1.707.707L43.15 1.707a1 1 0 01-.218-1.09zM46.273 2L52.7 8.425V2h-6.428z" fill="#59738C"/></svg>