<svg width="46" height="74" fill="none" xmlns="http://www.w3.org/2000/svg"><path fill-rule="evenodd" clip-rule="evenodd" d="M7.625 15.898C7.625 7.31 14.313 0 22.885 0c4.259 0 8.075 1.707 10.877 4.547 2.815 2.746 4.49 6.622 4.49 10.925v15.643l-.002.063c0 .001 0 0 0 0l-.998-.063c.997.065.998.064.998.064v.005l-.002.019v.02a7.95 7.95 0 00.024.825c.044.552.156 1.266.415 1.965.26.697.65 1.336 1.226 1.8.563.452 1.371.793 2.582.793a1 1 0 01.68.268l-.68.732c-.681.733-.682.732-.683.731l-.003-.003-.005-.004-.008-.008a.396.396 0 01-.026-.028l-.004-.005-.002-.006a.049.049 0 01-.001-.014s0 .005-.003.014a.298.298 0 01-.02.045.948.948 0 01-.157.216l-.008.009c-1.188-.144-2.152-.568-2.915-1.181-.937-.754-1.504-1.738-1.848-2.663a9.461 9.461 0 01-.534-2.5 9.95 9.95 0 01-.026-1.12v.026h1l-.998-.063v.003l-.001.007-.001.021v.005M4.999 37.946a.754.754 0 01-.075-.071s.012.016.022.048a.258.258 0 01.01.118l-.001.003v-.003A.632.632 0 015 37.946zm36.576.607c-.19.203-.551.487-1.21.822-.133.067-.25.093-.48.144l-.252.056c-.356.083-.884.23-1.34.686a1 1 0 001.414 1.414c.044-.044.11-.089.38-.151l.12-.027c.254-.053.678-.143 1.062-.339 1.555-.788 2.373-1.673 2.482-2.671a1.957 1.957 0 00-.55-1.59l-.014-.012-.006-.006-.003-.002-.001-.002-.682.731v1a7.76 7.76 0 01-.92-.053zM7.625 15.898v.958zm0 .958v2.98zm0 2.98V30.69zm0 10.854c0 2.036-.813 3.082-1.726 3.873zm-1.726 3.873c-.24.208-.49.4-.75.594zm-.75.594l-.17.127zm-.17.127c-.202.15-.413.306-.606.46zm-.606.46c-.48.384-1.048.9-1.306 1.639zm-1.306 1.639a1.784 1.784 0 00-.032 1.13c.111.362.326.64.542.844.405.384.962.647 1.398.835.21.09.396.166.567.235.25.102.47.191.694.299.17.081.283.148.354.2l.038.032" fill="#59738C"/><path fill-rule="evenodd" clip-rule="evenodd" d="M23.25 11.97a.997.997 0 01-.045.203c-.926 2.758-3.55 4.426-5.69 5.383a20.922 20.922 0 01-4.17 1.342l-.02.004h-.007l-.002.001-.181-.983m20.342-2.929c-.66-1.19-1.716-2.097-2.816-2.777-1.877-1.16-4.102-1.803-5.404-2.173-1.476-.42-2.561-.264-3.274.352a2.133 2.133 0 00-.698 1.208l-.003.015c-.673 1.882-2.585 3.221-4.584 4.114a18.916 18.916 0 01-2.866 1.002m20.31 1.387a1 1 0 01-1.978-.246c.08-1.707-.948-2.965-2.555-3.958-1.61-.994-3.579-1.575-4.899-1.95-.569-.162-.93-.175-1.14-.15-.198.023-.266.08-.279.09a.134.134 0 00-.04.064m-3.025 22.483l.001.002.024.028c.024.03.066.078.125.139.12.121.303.29.55.46a3.766 3.766 0 002.17.674c.903 0 1.659-.333 2.208-.69a4.767 4.767 0 00.778-.631l.032-.034.003-.004-.001.002h-.001l.002-.002.042-.045m-8.725-2.001a1 1 0 011 1v5.32a1 1 0 01-2 0v-5.32a1 1 0 011-1z" fill="#59738C"/><path fill-rule="evenodd" clip-rule="evenodd" d="M17.197 37.699a1 1 0 011.178.633l2.831 7.875a1 1 0 11-1.882.676l-2.51-6.98c-.15.051-.313.11-.483.177-.782.308-1.588.725-2.065 1.208-.21.214-.361.428-.541.7-.28.828-.52 1.748-.691 2.484-.063.267-.116.508-.159.708l.037.017c.38.174 1.15.398 2.553.349a1 1 0 01.07 1.999c-1.637.057-2.731-.198-3.456-.53a3.323 3.323 0 01-.812-.51 2.188 2.188 0 01-.29-.309 1.333 1.333 0 01-.025-.036l-.011-.015-.005-.008-.002-.003-.001-.002c0-.001-.002-.002.838-.544l-.982-.185.001-.008.004-.022.015-.078.059-.287c.05-.245.124-.59.218-.992a28.74 28.74 0 01.79-2.8 1.001 1.001 0 01.121-.24c.205-.313.46-.702.845-1.092.782-.794 1.916-1.334 2.758-1.665a14.598 14.598 0 011.556-.51l.028-.007.009-.002h.002l.002-.001.237.972-.237-.972zm-5.425 7.889l-.983-.185a1 1 0 00.143.727l.84-.543zM28.549 32.35a1 1 0 011 1v5.32a1 1 0 01-2 0v-5.32a1 1 0 011-1z" fill="#59738C"/><path fill-rule="evenodd" clip-rule="evenodd" d="M28.795 37.595l-.246.97.246-.97h.002l.002.001.009.002.026.007.095.026a14.733 14.733 0 011.42.483c.822.329 1.91.852 2.726 1.602.537.418.867.888 1.038 1.41.327.994.596 2.035.783 2.82a44.48 44.48 0 01.276 1.239l.015.075.004.02.001.007-.98.194c.912.409.912.41.911.41v.003l-.003.004-.004.008-.008.019a1.338 1.338 0 01-.082.144 2.02 2.02 0 01-.199.26 2.895 2.895 0 01-.778.602c-.71.387-1.791.671-3.438.614a1 1 0 01.07-2c1.395.05 2.096-.199 2.409-.37l.031-.017c-.044-.204-.102-.46-.17-.75a34.202 34.202 0 00-.738-2.659c-.034-.104-.111-.262-.39-.474a.982.982 0 01-.078-.066c-.543-.509-1.373-.932-2.138-1.237a12.738 12.738 0 00-.441-.167l-2.507 6.972a1 1 0 11-1.882-.677l2.831-7.874a1 1 0 011.187-.631zm5.416 7.886l.913.409a1 1 0 00.068-.603l-.98.194zm-5.909-5.948zm-17.97 1.947c-1.202 0-2.318.28-3.356.759h-.002C4.06 43.576 2 46.53 2 49.95v15.388h2.5a1 1 0 110 2H1a1 1 0 01-1-1V49.95c0-4.241 2.553-7.883 6.14-9.528a9.932 9.932 0 014.192-.942H13.5a1 1 0 110 2h-3.168z" fill="#59738C"/><path fill-rule="evenodd" clip-rule="evenodd" d="M3.746 46.545a1 1 0 011-1h36.596a1 1 0 011 1v22.88a1 1 0 01-1 1H4.746a1 1 0 01-1-1v-22.88zm2 1v20.88h34.596v-20.88H5.746z" fill="#59738C"/><path fill-rule="evenodd" clip-rule="evenodd" d="M2.697 69.424a1 1 0 011-1h38.798a1 1 0 01.999 1.055c-.133 2.42-2.12 4.457-4.669 4.457H7.158c-2.454 0-4.46-2.058-4.46-4.512zm2.21 1c.389.886 1.27 1.512 2.25 1.512h31.668a2.677 2.677 0 002.396-1.512H4.907zm18.19-12.876a.374.374 0 00-.364.383c0 .226.177.384.364.384a.374.374 0 00.363-.383.374.374 0 00-.363-.384zm-2.364.383c0-1.302 1.045-2.383 2.364-2.383s2.363 1.081 2.363 2.383c0 1.303-1.044 2.384-2.363 2.384-1.32 0-2.364-1.081-2.364-2.383zM31.5 40.463a1 1 0 011.005-.995l2.546.011c5.703.002 10.33 4.72 10.33 10.471v16.388a1 1 0 01-1 1H41.5a1 1 0 110-2h1.881V49.95c0-4.676-3.76-8.47-8.332-8.47h-.005l-2.549-.012a1 1 0 01-.995-1.005z" fill="#59738C"/></svg>