<svg width="185" height="24" fill="none" xmlns="http://www.w3.org/2000/svg"><path d="M1.482.334V9.74h.433c.034-.54.117-1.085.256-1.63.133-.55.305-1.077.522-1.583a8.03 8.03 0 01.734-1.368c.273-.406.573-.734.89-.99.233-.194.533-.378.906-.556a6.053 6.053 0 011.334-.433c.523-.117 1.118-.173 1.796-.178h7.07L.549 23.482l.066.2h21.514V12.875h-.433a21.82 21.82 0 01-.184 1.862c-.094.629-.222 1.24-.389 1.835a8.976 8.976 0 01-.656 1.656c-.267.506-.59.945-.973 1.318-.483.45-.995.778-1.529.99a6.123 6.123 0 01-1.612.4c-.533.06-1.045.083-1.529.077H7.485L22.295.533l-.167-.2H1.482zm27.35 19.612c.006.272-.005.55-.038.84a2.964 2.964 0 01-.223.856 2.183 2.183 0 01-.572.773c-.25.205-.528.367-.845.472a4.704 4.704 0 01-.967.233c-.334.045-.65.078-.957.095l-.567.033v.434h23.415v-10.14h-.434l-.1 1.034c-.05.55-.127 1.095-.227 1.65a6.911 6.911 0 01-.512 1.602c-.233.523-.578 1-1.028 1.451-.14.145-.345.317-.612.511a5.488 5.488 0 01-1.023.567 7.27 7.27 0 01-1.5.468c-.585.122-1.262.183-2.035.188h-7.639V4.07a5.144 5.144 0 01.04-.728 3.49 3.49 0 01.222-.9c.122-.312.311-.59.572-.84.24-.211.517-.367.834-.472.323-.112.65-.19.99-.234.333-.044.65-.078.945-.094l.567-.034V.334H24.663v.433l.567.034c.295.016.612.05.951.094.333.045.662.122.984.234.317.105.595.26.834.472.26.25.456.528.572.84.117.31.195.611.223.9.033.29.044.534.038.728v15.877zM60.386 0l-7.271 17.545a27.357 27.357 0 01-.667 1.462c-.2.4-.373.734-.523 1-.15.261-.278.473-.378.64a7.534 7.534 0 01-.439.639 5.36 5.36 0 01-.7.75 4.695 4.695 0 01-2.363 1.112l-.634.1v.434h11.975v-.434l-.834-.066a6.41 6.41 0 01-1.051-.167 4.207 4.207 0 01-1.056-.412 2.475 2.475 0 01-.828-.723c-.179-.25-.3-.544-.373-.889a3.65 3.65 0 01-.056-1.05 3.39 3.39 0 01.228-.995l1.268-3.102h8.539l1.5 3.669c.09.205.162.428.228.672.067.25.1.49.106.729-.006.494-.1.889-.289 1.178a1.752 1.752 0 01-.711.656c-.15.089-.334.161-.545.217a5.928 5.928 0 01-.779.144c-.31.04-.695.073-1.145.106l-.5.033v.434h13.075v-.434l-.534-.033a5.258 5.258 0 01-1.167-.2 5.46 5.46 0 01-1.056-.412 3.59 3.59 0 01-.812-.555 3.614 3.614 0 01-.561-.762 12.818 12.818 0 01-.612-1.256c-.223-.517-.5-1.179-.828-1.985L63.22 0h-2.835zm4.003 13.509h-6.871l3.402-8.206h.067l3.402 8.206zM86.236 3.002h2.469c.194-.006.439.005.734.028.294.022.61.067.956.144.344.073.689.19 1.033.345.35.161.673.378.979.65.278.256.528.595.756 1.023.222.428.423.9.59 1.418.172.522.31 1.05.416 1.584.106.534.172 1.04.206 1.512h.433V.334h-21.28v9.372h.434c.033-.472.105-.978.211-1.512.1-.533.239-1.062.411-1.584.167-.517.367-.99.595-1.418.223-.428.473-.767.75-1.023.306-.272.629-.489.979-.65.345-.156.69-.272 1.034-.345.345-.077.662-.122.956-.144.295-.023.54-.034.734-.028H82.1v16.944c.006.195-.005.44-.039.729a3.541 3.541 0 01-.222.9 2.313 2.313 0 01-.573.84 2.468 2.468 0 01-.833.472c-.323.111-.65.183-.985.233-.338.045-.655.072-.95.095l-.567.033v.434h12.475v-.434l-.567-.033a16.61 16.61 0 01-.945-.095 5.427 5.427 0 01-.99-.233 2.47 2.47 0 01-.834-.473 2.39 2.39 0 01-.573-.839 3.569 3.569 0 01-.222-.9 5.23 5.23 0 01-.039-.729V3.002zM128.73.334h-10.006l-6.237 15.843h-.1L106.149.334H95.743v.433l.567.034c.294.016.611.05.95.094.334.045.662.122.984.234.317.105.595.26.834.472.261.25.456.528.573.84.116.31.194.611.222.9.033.29.044.534.039.728v15.21a8.65 8.65 0 01-.044.934c-.034.367-.112.74-.234 1.112-.117.372-.306.69-.556.956a2.54 2.54 0 01-.822.517 5.432 5.432 0 01-1.012.3c-.35.067-.662.106-.934.117l-.567.033v.434h11.24v-.434l-.567-.033a6.5 6.5 0 01-.934-.117 5.457 5.457 0 01-1.012-.3 2.54 2.54 0 01-.822-.517 2.208 2.208 0 01-.468-.723 3.903 3.903 0 01-.249-.856 7.43 7.43 0 01-.117-1.423V3.57h.1l7.938 20.113h1.535l7.938-20.113h.1v16.377c.006.195-.005.44-.039.729-.027.289-.1.589-.222.9a2.31 2.31 0 01-.573.84 2.468 2.468 0 01-.834.472c-.322.111-.65.183-.984.233-.339.045-.656.072-.95.095l-.567.033v.434h12.474v-.434l-.567-.033c-.294-.023-.611-.05-.945-.095a5.242 5.242 0 01-.983-.233 2.44 2.44 0 01-.84-.473 2.387 2.387 0 01-.573-.839 3.588 3.588 0 01-.222-.9 6.088 6.088 0 01-.039-.729V4.07a6.076 6.076 0 01.039-.728c.028-.289.106-.59.222-.9.123-.312.311-.59.573-.84.239-.211.517-.367.84-.472.316-.112.644-.19.983-.234.334-.044.651-.078.945-.094l.567-.034V.334zM140.972 0L133.7 17.545a27.27 27.27 0 01-.667 1.462c-.2.4-.372.734-.522 1-.15.261-.278.473-.378.64a7.465 7.465 0 01-.44.639 5.302 5.302 0 01-.7.75c-.278.25-.611.479-1.006.679-.389.2-.839.344-1.356.433l-.634.1v.434h11.974v-.434l-.834-.066a6.419 6.419 0 01-1.051-.167 4.215 4.215 0 01-1.056-.412 2.481 2.481 0 01-.828-.723c-.178-.25-.3-.544-.372-.889a3.633 3.633 0 01-.056-1.05c.028-.356.105-.69.228-.995l1.267-3.102h8.539l1.501 3.669c.089.205.161.428.228.672.067.25.1.49.106.729-.006.494-.101.889-.289 1.178a1.755 1.755 0 01-.712.656c-.15.089-.334.161-.545.217a5.924 5.924 0 01-.778.144c-.311.04-.695.073-1.145.106l-.501.033v.434h13.076v-.434l-.534-.033a5.265 5.265 0 01-1.168-.2 5.49 5.49 0 01-1.056-.412 3.601 3.601 0 01-.812-.555 3.637 3.637 0 01-.561-.762 12.967 12.967 0 01-.612-1.256c-.222-.517-.5-1.179-.828-1.985L143.807 0h-2.835zm4.002 13.509h-6.871l3.403-8.206h.066l3.402 8.206zM155.548.334v.433l.634.134a4.38 4.38 0 011.25.528c.428.255.84.55 1.234.89.395.338.746.677 1.051 1.016l7.705 8.573-6.504 7.571a6.76 6.76 0 01-.472.506c-.201.2-.423.412-.656.628a25.06 25.06 0 01-.679.6c-.211.184-.389.329-.528.434a9.195 9.195 0 01-1.701.99 9.447 9.447 0 01-1.801.611v.434h13.109v-.434l-.801-.066c-.628-.056-1.112-.128-1.457-.212-.339-.089-.567-.15-.678-.188-.239-.09-.461-.2-.672-.35a1.681 1.681 0 01-.523-.562c-.133-.228-.2-.512-.206-.857.006-.26.078-.533.212-.822.133-.29.283-.556.455-.8.173-.245.317-.44.434-.579l4.236-4.937 4.569 5.037c.239.256.462.523.673.795.211.278.389.556.523.845.133.284.2.573.205.862-.005.328-.094.6-.272.817a1.924 1.924 0 01-.695.517c-.305.15-.661.261-1.056.334a8.67 8.67 0 01-1.179.133l-.967.033v.434H185v-.434a6.029 6.029 0 01-2.568-.967 11.126 11.126 0 01-1.757-1.529 59.974 59.974 0 01-1.779-1.973l-7.105-7.939 4.504-5.203c.322-.372.661-.767 1.017-1.19.361-.422.745-.834 1.156-1.234.406-.4.851-.761 1.329-1.079.294-.188.617-.372.978-.544.362-.172.74-.317 1.134-.445a6.87 6.87 0 011.156-.278l.667-.1V.334h-13.408v.433l.834.067c.612.05 1.112.139 1.501.261.389.123.689.273.9.44.245.183.423.383.523.606.1.227.15.477.145.76a2.919 2.919 0 01-.479 1.585c-.133.2-.261.373-.389.517l-3.335 3.903-4.736-5.27c-.179-.2-.306-.378-.373-.534-.067-.155-.1-.3-.095-.434a1.435 1.435 0 01.195-.75c.134-.245.378-.461.739-.65.173-.079.373-.15.606-.212.234-.06.473-.11.712-.15a8.32 8.32 0 01.65-.072l.768-.067V.334h-12.942z" fill="#1F1C21"/></svg>