<svg width="191" height="124" fill="none" xmlns="http://www.w3.org/2000/svg"><path d="M2.78 29.039h9.706c3.464 0 6.5-.468 8.595-2.555 1.497-1.49 2.31-3.662 2.31-6.089 0-3.023-1.283-4.896-2.31-5.918-2.394-2.342-5.558-2.64-8.039-2.64H9.365V6.174h11.032V.639H2.78v28.4zm6.585-5.28v-6.813h2.608c.684 0 2.352.043 3.378.767.6.426 1.283 1.277 1.283 2.64 0 1.447-.77 2.214-1.111 2.512-1.027.809-2.652.894-3.55.894H9.365zM44.245 0c-5.688 0-9.237 2.257-11.161 4.173-2.566 2.555-4.405 6.685-4.405 10.772 0 4.173 1.71 8.005 4.448 10.56 2.138 2.044 5.772 4.173 11.118 4.173 4.789 0 8.38-1.618 11.032-4.173 3.079-2.98 4.447-6.855 4.447-10.645 0-4.385-1.753-8.132-4.447-10.73C52.412 1.363 48.692 0 44.245 0zm-.043 6.046c2.608 0 4.875 1.065 6.286 2.427 1.283 1.278 2.48 3.45 2.48 6.387 0 3.279-1.368 5.28-2.48 6.344-1.368 1.363-3.421 2.427-6.329 2.427-2.224 0-4.276-.596-6.115-2.341-1.753-1.704-2.608-3.79-2.608-6.387 0-3.151 1.283-5.238 2.523-6.43 1.54-1.533 3.763-2.427 6.243-2.427zM69.156.639V16.52c0 2.256-.085 4.769-1.282 5.96-.556.554-1.497.938-2.609.938-.599 0-1.155-.086-1.625-.256v5.876c.813.213 1.668.34 2.651.34 3.25 0 5.217-1.064 6.415-2.256 2.266-2.3 2.864-6.344 2.864-11.198v-9.75h7.74v22.865h6.586V.639h-20.74zm44.826 0H97.861v28.4h16.121v-5.535h-9.536v-6.302h9.066v-5.535h-9.066V6.174h9.536V.639zm23.175 0h-16.121v28.4h16.121v-5.535h-9.536v-6.302h9.065v-5.535h-9.065V6.174h9.536V.639zM11.973 47.31l-6.542 8.56C2.993 59.062.855 62.255.855 66.769c0 2.512.599 4.896 2.48 6.898 2.823 3.065 6.628 3.32 9.237 3.32 2.523 0 6.158-.382 8.766-3.193 1.839-2 2.694-4.896 2.694-7.621 0-3.45-1.454-5.493-2.48-6.557-1.24-1.278-3.464-2.725-7.056-2.725-1.24 0-2.138.17-2.993.468l7.526-9.325-7.056-.724zm.385 24.313c-1.454 0-2.651-.554-3.464-1.32-1.069-.98-1.453-2.214-1.453-3.534 0-1.959.898-3.108 1.453-3.62.984-.936 2.181-1.234 3.464-1.234 1.112 0 2.352.255 3.421 1.192.813.724 1.497 1.831 1.497 3.492 0 1.83-.727 3.023-1.497 3.746-.599.554-1.71 1.278-3.42 1.278zm29.463-23.674v28.4h10.733c1.754 0 5.175-.17 7.526-2.427 1.112-1.107 2.224-2.895 2.224-5.748 0-2.512-.898-4.13-1.839-5.067-1.026-1.022-2.565-1.703-3.934-1.916a5.22 5.22 0 002.395-2.086c.77-1.235.94-2.513.94-3.62 0-1.234-.213-3.619-2.052-5.365-2.224-2.086-5.73-2.171-7.27-2.171h-8.723zm6.5 5.11h1.026c1.198 0 2.48 0 3.421.723.513.383 1.112 1.15 1.112 2.385 0 1.234-.556 2.086-1.155 2.512-.94.681-2.437.809-3.335.809h-1.069v-6.43zm0 11.283h1.796c1.326 0 3.55 0 4.704 1.064.427.383.898 1.15.898 2.3 0 1.022-.342 1.83-.941 2.384-1.197 1.107-3.207 1.15-4.875 1.15h-1.582v-6.898zm20.6-16.393v28.74h5.816L87.95 57.743V76.35h6.586V47.61H88.72L75.507 66.512V47.95H68.92zm36.353 0v12.007c0 3.108-.043 7.153-2.438 9.368-.256.255-1.368 1.234-3.207 1.575v11.837h5.901V76.35h17.49v6.387h5.901V70.9h-3.207V47.95h-20.44zm6.329 5.45h7.611v17.5h-10.733c1.539-1.575 2.224-3.278 2.566-4.513.47-1.746.556-4.684.556-6.643V53.4zm36.825-6.089c-5.688 0-9.237 2.257-11.161 4.173-2.566 2.555-4.404 6.685-4.404 10.773 0 4.172 1.71 8.004 4.447 10.56 2.138 2.043 5.773 4.172 11.118 4.172 4.789 0 8.381-1.618 11.032-4.173 3.079-2.98 4.447-6.855 4.447-10.645 0-4.385-1.753-8.132-4.447-10.73-2.865-2.767-6.585-4.13-11.032-4.13zm-.043 6.046c2.608 0 4.875 1.065 6.286 2.427 1.283 1.278 2.48 3.45 2.48 6.387 0 3.279-1.368 5.28-2.48 6.345-1.368 1.362-3.421 2.427-6.329 2.427-2.223 0-4.276-.596-6.115-2.342-1.753-1.703-2.608-3.79-2.608-6.387 0-3.151 1.283-5.237 2.523-6.43 1.539-1.532 3.763-2.427 6.243-2.427zm22.132-5.407v28.4h10.733c1.754 0 5.174-.17 7.526-2.427 1.112-1.107 2.224-2.895 2.224-5.748 0-2.512-.898-4.13-1.839-5.067-1.026-1.022-2.565-1.703-3.934-1.916a5.221 5.221 0 002.395-2.086c.77-1.235.941-2.513.941-3.62 0-1.234-.214-3.619-2.053-5.365-2.224-2.086-5.73-2.171-7.269-2.171h-8.724zm6.5 5.11h1.026c1.198 0 2.48 0 3.421.723.513.383 1.112 1.15 1.112 2.385 0 1.234-.556 2.086-1.155 2.512-.94.681-2.437.809-3.335.809h-1.069v-6.43zm0 11.283h1.796c1.326 0 3.549 0 4.704 1.064.427.383.898 1.15.898 2.3 0 1.022-.342 1.83-.941 2.384-1.197 1.107-3.207 1.15-4.875 1.15h-1.582v-6.898zM18.986 100.794v-5.535H0v5.535h6.2v22.865h6.586v-22.865h6.2zm11.758-5.534h-6.585v28.399h6.585v-12.603l10.22 12.603h8.467l-12.444-14.945 11.546-13.455h-8.04l-9.749 11.837V95.259zm42.673 28.399h6.842l-11.247-28.4h-6.03l-11.502 28.4h6.842l2.18-5.365H71.28l2.138 5.365zm-10.99-10.389l3.55-9.538 3.506 9.538h-7.056zm29.324-18.01h-6.585v28.399h6.585v-12.05h11.375v12.05h6.585v-28.4h-6.585v10.815H91.751V95.259zm42.023 0h-16.121v28.399h16.121v-5.535h-9.536v-6.302h9.066v-5.535h-9.066v-5.493h9.536v-5.535zm7.054 0V124h5.815l13.214-18.948v18.607h6.585v-28.74h-5.815l-13.214 18.905V95.259h-6.585zm16.762-9.368c-.213.68-.727 1.532-1.368 2.043-.855.64-1.881.724-2.523.724-.983 0-1.967-.255-2.608-.724-.556-.425-1.112-1.277-1.411-2.043l-4.533 1.916a8.565 8.565 0 003.25 3.832c1.71 1.022 3.549 1.192 5.217 1.192 1.71 0 3.549-.17 5.259-1.192a8.565 8.565 0 003.25-3.832l-4.533-1.916z" fill="#40536A"/></svg>