<svg width="109" height="14" fill="none" xmlns="http://www.w3.org/2000/svg"><path d="M.872.196v5.538h.256c.02-.318.068-.638.15-.959.079-.324.18-.635.308-.933.124-.294.268-.563.432-.805.16-.239.337-.432.524-.583a2.55 2.55 0 01.533-.327c.219-.104.48-.19.785-.255a5.062 5.062 0 011.057-.105H9.08L.323 13.824l.039.118h12.665V7.58h-.255c-.02.36-.056.726-.108 1.096-.056.37-.13.73-.23 1.08-.1.35-.228.674-.385.975a3.058 3.058 0 01-.573.776 2.88 2.88 0 01-.9.583 3.603 3.603 0 01-.95.235 7.187 7.187 0 01-.9.046h-4.32L13.127.314l-.099-.118H.872zm16.102 11.547c.003.16-.003.323-.023.494-.016.17-.062.34-.13.504a1.29 1.29 0 01-.338.455c-.147.12-.31.216-.497.278a2.77 2.77 0 01-.57.137 7.358 7.358 0 01-.563.056l-.333.02v.255h13.784v-5.97h-.255l-.059.61c-.03.323-.075.644-.134.971a4.07 4.07 0 01-.3.943 2.898 2.898 0 01-.606.854 2.813 2.813 0 01-.36.3 3.236 3.236 0 01-.603.335c-.245.111-.54.203-.883.275a6.12 6.12 0 01-1.198.11h-4.497V2.397a3.018 3.018 0 01.023-.429c.017-.17.062-.347.13-.53.073-.184.184-.347.338-.494a1.38 1.38 0 01.49-.278 2.92 2.92 0 01.584-.138A7.57 7.57 0 0121.53.47l.334-.02V.197H14.52v.256l.334.02c.173.01.36.029.56.055.195.026.389.072.578.138.187.062.35.153.491.278.154.147.269.31.337.494.07.183.115.36.131.53.02.17.026.314.023.429v9.347zM35.55 0l-4.28 10.329a16.122 16.122 0 01-.7 1.45l-.223.376c-.063.105-.15.232-.259.376a3.155 3.155 0 01-.412.442 2.767 2.767 0 01-1.39.655l-.374.059v.255h7.05v-.255l-.492-.04a3.77 3.77 0 01-.618-.098 2.48 2.48 0 01-.622-.242 1.458 1.458 0 01-.488-.426 1.368 1.368 0 01-.219-.523c-.04-.2-.053-.406-.033-.619.017-.209.062-.405.134-.586l.747-1.826h5.027l.883 2.16c.053.121.095.252.134.396.04.148.06.289.063.43-.004.29-.06.523-.17.693a1.031 1.031 0 01-.42.386 1.268 1.268 0 01-.32.128 3.475 3.475 0 01-.458.085c-.184.023-.41.042-.675.062l-.294.02v.255h7.698v-.255l-.315-.02a3.093 3.093 0 01-.687-.118 3.216 3.216 0 01-.622-.242 2.114 2.114 0 01-.478-.327 2.126 2.126 0 01-.33-.449 7.582 7.582 0 01-.36-.74 60.578 60.578 0 01-.488-1.168L37.219 0H35.55zm2.357 7.953h-4.045l2.003-4.83h.039l2.003 4.83zm12.862-6.186h1.453a4.34 4.34 0 01.995.102c.203.042.405.11.608.203.206.095.396.222.576.382.164.151.311.35.445.603.131.252.25.53.347.834a7.775 7.775 0 01.367 1.823h.255V.196H43.287v5.518h.255c.02-.278.063-.576.125-.89.059-.314.14-.625.242-.933a5.12 5.12 0 01.35-.834c.131-.252.278-.452.442-.603.18-.16.37-.287.576-.382.203-.092.406-.16.609-.203a4.338 4.338 0 01.995-.102h1.453v9.976a3.04 3.04 0 01-.023.428c-.017.17-.062.347-.131.53a1.37 1.37 0 01-.337.495c-.141.12-.305.216-.491.278-.19.066-.383.108-.58.137-.199.026-.386.043-.56.056l-.333.02v.255h7.344v-.255l-.334-.02a9.756 9.756 0 01-.556-.056 3.18 3.18 0 01-.582-.137 1.456 1.456 0 01-.491-.278 1.407 1.407 0 01-.338-.494 2.102 2.102 0 01-.13-.53 3.09 3.09 0 01-.023-.43V1.768zM75.786.197h-5.891l-3.672 9.327h-.06L62.493.196h-6.127v.256l.334.02c.174.01.36.029.56.055.196.026.39.072.579.138.186.062.35.153.49.278.154.147.27.31.338.494.069.183.114.36.13.53.02.17.027.314.024.429v8.954c.003.15-.007.334-.026.55-.02.216-.066.435-.138.654-.069.22-.18.406-.327.563a1.496 1.496 0 01-.484.305 3.203 3.203 0 01-.596.176c-.206.04-.39.062-.55.069l-.334.02v.255h6.618v-.255l-.334-.02a3.825 3.825 0 01-.55-.069 3.201 3.201 0 01-.596-.176 1.494 1.494 0 01-.484-.305 1.291 1.291 0 01-.275-.425 2.286 2.286 0 01-.147-.504 4.608 4.608 0 01-.069-.838V2.1h.059l4.673 11.84h.904L70.838 2.1h.06v9.642c.002.114-.004.258-.024.428a1.98 1.98 0 01-.13.53c-.07.18-.184.347-.338.495a1.46 1.46 0 01-.49.278c-.19.066-.384.108-.58.137-.2.026-.386.043-.56.056l-.333.02v.255h7.344v-.255l-.334-.02a9.793 9.793 0 01-.557-.056 3.11 3.11 0 01-.579-.137 1.439 1.439 0 01-.494-.278 1.409 1.409 0 01-.337-.494 2.096 2.096 0 01-.131-.53 3.582 3.582 0 01-.023-.43V2.397a3.576 3.576 0 01.023-.429 2.1 2.1 0 01.13-.53c.073-.184.184-.347.338-.494.14-.125.304-.216.494-.278.187-.066.38-.112.58-.138.196-.026.382-.046.556-.056l.334-.02V.197zM82.992 0l-4.28 10.329a16.035 16.035 0 01-.7 1.45l-.223.376a4.42 4.42 0 01-.26.376 3.16 3.16 0 01-.411.442 2.765 2.765 0 01-1.39.655l-.375.059v.255h7.05v-.255l-.49-.04a3.769 3.769 0 01-.62-.098 2.479 2.479 0 01-.621-.242 1.457 1.457 0 01-.488-.426 1.368 1.368 0 01-.219-.523c-.04-.2-.053-.406-.033-.619a1.99 1.99 0 01.134-.586l.747-1.826h5.026l.884 2.16c.052.121.095.252.134.396.04.148.06.289.062.43-.003.29-.058.523-.17.693a1.031 1.031 0 01-.418.386 1.268 1.268 0 01-.321.128 3.474 3.474 0 01-.459.085 13.87 13.87 0 01-.674.062l-.294.02v.255h7.697v-.255l-.314-.02a3.093 3.093 0 01-.687-.118 3.222 3.222 0 01-.622-.242 2.116 2.116 0 01-.478-.327 2.136 2.136 0 01-.33-.449 7.585 7.585 0 01-.36-.74A62.462 62.462 0 0189 10.624L84.66 0h-1.669zm2.357 7.953h-4.046l2.003-4.83h.04l2.003 4.83zM91.573.196v.256l.374.078c.238.056.484.16.736.311.252.15.494.324.726.524.233.2.44.399.619.599l4.536 5.046-3.83 4.458c-.065.082-.16.18-.277.297a14.521 14.521 0 01-.786.724 6.18 6.18 0 01-.31.255 5.415 5.415 0 01-1.002.583c-.357.16-.71.281-1.06.36v.255h7.717v-.255l-.472-.04a6.144 6.144 0 01-.857-.124 7.423 7.423 0 01-.4-.111 1.7 1.7 0 01-.395-.206.994.994 0 01-.308-.331 1.013 1.013 0 01-.121-.504c.003-.154.046-.314.124-.484a3 3 0 01.269-.472c.101-.144.186-.258.255-.34l2.494-2.906 2.69 2.965c.14.15.272.308.396.468.124.163.229.327.308.497.078.167.117.337.121.508a.757.757 0 01-.161.48 1.125 1.125 0 01-.409.305 2.42 2.42 0 01-.621.197 5.124 5.124 0 01-.695.078l-.569.02v.255h8.247v-.255a3.553 3.553 0 01-1.512-.57 6.586 6.586 0 01-1.034-.9c-.33-.35-.681-.736-1.047-1.162l-4.183-4.673 2.651-3.063c.19-.22.39-.452.599-.7.213-.25.439-.492.681-.727.239-.236.501-.449.782-.635a5.16 5.16 0 011.244-.583 4.05 4.05 0 01.68-.163l.393-.06V.197h-7.894v.256l.491.039c.36.03.655.082.884.154.229.072.406.16.53.258a.945.945 0 01.308.357c.059.134.088.281.085.448-.003.197-.03.37-.085.527a1.738 1.738 0 01-.197.406 2.78 2.78 0 01-.229.305l-1.963 2.297-2.789-3.103a1.254 1.254 0 01-.22-.314.595.595 0 01-.055-.255.841.841 0 01.115-.442c.078-.144.222-.272.435-.383a2.27 2.27 0 01.357-.124A4.5 4.5 0 0198.74.49l.451-.04V.197h-7.618z" fill="#fff"/></svg>